<svg id="Layer_1" data-name="Layer 1" xmlns="http://www.w3.org/2000/svg" viewBox="0 0 50 50">
  <defs>
    <style>
      .cls-1 {
        fill: #f7f2eb;
      }
    </style>
  </defs>
  <title>SVG-shapes-for-Fletch</title>
  <path class="cls-1" d="M-289.26-57.68-729.59,382.65-287.3,824.94,153,384.61ZM-56.09,282.47c4.56,4.8,9.14,9.57,13.3,13.92L-61,329.46c-9.71-7.38-9.32-15.31,2-24.36,2.46-2,7.32-5.25.24-10.22l-13.85,22.68L-77.34,312c5.33-10.27,10.12-19.27,14.67-28.38C-60.82,279.88-58.88,279.53-56.09,282.47Zm2.31,76.09c-4.7,2.35-7.87,2.38-11-3.28-4.17-7.56-9.82-14.32-15-21.61l4.41-3.28c3.66,5.3,6.79,10.23,10.32,14.84S-57.64,354-53.78,358.56Zm-25.35-98.62,13.49,12.84c-11.44,2.61-10.47-7.64-14.68-12L-80.5,259Zm1.78,17.67c5.2-4,10-3.24,16.51-1.55l-19.82,17.56C-83.35,286.93-83.13,282.07-77.35,277.61Zm-4.11,55-12.07-10.78c5.35-.58,4.45-9.13,10.74-6.74C-79.46,316.36-79,325.63-81.46,332.62Zm-74.88-149.14-16.54,8.06-1.73-1.65q4.92-7.59,9.84-15.13ZM-175.78,180c-3.58,6.42-5.82,13.59-8.67,20.43l1.1,1.12c10.95-.6,22.2.13,32.76-2.22,8.92-2,13.8.83,18.89,8.47H-191c3.39-15.66,6.91-32,10.46-48.36C-168.86,167-169,167.75-175.78,180Zm-10.5-20.87c-3.35,15.19-5.61,30.62-8.56,45.91-.53,2.79-2.25,5.34-3.24,7.61,23,5.65,46.94,1.58,70.88,1.41,4,0,9.15,5.39,11.74,9.56,5.08,8.18,8.72,17.25,13,25.95,4.72,6.51,9.5,13,14.06,19.6.62.9.09,2.58.09,5.69l-15.33-23.66h0c-5-4.53-9.56-9.85-15.22-13.37a56.4,56.4,0,0,0-17.89-6.85c-22-4.61-44-8.62-65.87-12.82,3.85-22.56,7.83-45.86,11.85-69.47C-186.38,150.71-185,153.49-186.28,159.09Zm-57.38-59.83c5.34,16.51,11.39,32.8,17.26,49.14.42,1.16,1.69,2,3.89,2.35l-18.21-47L-238,102c13.8,13.35,27.66,26.64,41.29,40.16,1.19,1.18,1.5,4,1.18,5.82-3.53,20.49-7.33,40.92-10.88,61.4-.8,4.61,0,9.69-5.11,12.5a6.51,6.51,0,0,1,.84.82c4,1.13,7.91,2.6,12,3.32,14.85,2.65,29.72,5.25,44.64,7.45a165.36,165.36,0,0,0,21.8,1.56c3.74,0,6.2.73,8.18,4.2,3.31,5.8,7.19,11.28,12,18.65l-23.58-15c3.42,14.31,14.47,19.41,23,26.79l-4.47,3.35v0h15.58l-2.92-5.27c-.27-.93-.55-1.86-.82-2.8l2,1.44c-.39.46-.79.91-1.19,1.36.4-.45.8-.9,1.19-1.36,2.65,2.07,5.29,4.13,9,7-14.11,7.88-25.8,17.1-33.79,30.29,11.6-3.61,21.18-9.78,28-20.1,2.14-3.22,5.43-5.82,8.63-8.1.64-.45,4.23,1.49,4.73,2.93a33.36,33.36,0,0,1,1.66,10.48c.06,4.43,4.31,9.45-1.69,13.37-.74.48.2,3.53.31,4.76l-12.93,10.36c-2.14-4.37-6.11-8.74,1.19-13.41,2.58-1.65,3.5-5.87,5.38-9.3-7.7-.79-21.69,11.77-26,22.78l11-6c6.89,8.62,7,9.12,1.88,19.46l7.92-3.71c6.95,14.42,17,26.31,32.53,33.22-6.68,3.95-11.34,3.26-16.4-2a139,139,0,0,0-21-17.94c-7.71-5.29-16.39-9.17-25.83-14.31l10.66-4-.09-.75c-3.29.32-6.59,1-9.86.84-2.47-.1-4.9-1.21-8.06-2.06-.16,1.08-.49,3.34-.83,5.61l-1.32-1.74L-177,352.17c-3.36-2-1.85-4.65.86-7.75,11-12.58,15-28.44,20.94-43.41l-1.71-1.06-25.62,35.58c-.59-14.13-1.14-27.4-1.7-40.68l-1.93.18c-4,18.52,2,36.45,4,55.28-21.39,10.15-33.94,29.19-45.94,48.78,18.39-11.7,35.72-24.55,47.46-43.84,3.84,7.55,3.76,7.46-2.06,12.65-10.87,9.68-19.18,21.28-26.06,34.1-2.46,4.6-6.61,8.29-10,12.4l-2.17-1.42,3.63-9.28-1.27-1L-249,436.18l-4.84-6.06c4.61-9.38,9.76-19.52,14.59-29.81,4.62-9.82,8.91-19.81,14.14-31.5-4.33-10.32-14.34-18.7-26.85-26.85.88,15.5,12.93,20.81,22.24,29.09l-40.44,70.13-2.78-1.32c1.81-4.17,3.81-8.27,5.38-12.52,6-16.21,11.9-32.48,17.76-48.54l8,6.78,1.16-.73L-250,361.76c-6.17,2.15-5.28,2.2-5.7,11.13-.24,5-4,9.83-6.18,14.74l-3.29-.91c.86-6,1.73-12.07,2.3-16.05-.63-4.89-1.9-8.28-1.12-11.1.5-1.8,4-2.76,7-4.58-6-10.07-11.71-21.15-23.45-27.34v.05l-.06-.06.06.06-.09-.06c3.31,5.57-.16,13.38,6.53,18.23,1.6,1.15.24,6.4-1.31,11.14l-10.52-12.3-1.41,0c.7,2.85.49,7.16,2.27,8.28,4.2,2.63,4.21,6.7,5.81,10.33,1.4,3.15,3.85,5.82,5.5,8.89,1,1.84,1.94,4.06,1.82,6.05-.29,5.26-1.17,10.5-2,17.32-.95-.91-1.91-1.74-2.87-2.54a10,10,0,0,1,2.08,7.33c-.5,6.82-1,13.65-3.25,21.1-2.73-7-5.47-13.92-8.25-21l-4.34,1.91c-2.15,3.21-2.75,5.72.47,9.39,5.35,6.08,9.71,13.07,14.18,19.88a14,14,0,0,1,2.05,9.12q-20.3-18-40.6-36c-2.34-2.07-5.24-3.62-7.21-6a11.93,11.93,0,0,1-2.9-6.85c-.31-16.45.73-33-.78-49.31-.72-7.78-6.09-15.12-9.42-22.83,5.64-6.24,7.44-5.93,10.12,2,6.83,20.17,14.34,40.09,28.29,56.61,3.48,4.12,8.41,7.34,13.23,9.92.81.44,1.56.88,2.29,1.34-3.11-2.78-5.53-5.83-5.88-11-.85-12.57-7.28-23.27-14.1-33.46-6.33-9.45-13.45-18.38-20.24-27.56,8.51-.24,15.24,2.06,18.46,11.1,1.34,3.77,4.19,7,6.29,10.36l7.32-2.53-10.23-14,32-35.34-1.45-2,9.57,3.6c-2.37,2.23-4.67,3.86-6.3,6-5.68,7.52-11,15.36-16.8,22.75-1.36,1.71-4.33,2.15-6.56,3.17l-.88,1.26,9.06,5.63,0-.06.13.07c-.28-3.85.92-6.36,4.51-8.86,5.36-3.75,9.77-8.9,14.47-13.56,3.88-3.84,7.59-7.84,11.84-12.25l5.56,2.31c-6.33,7.7-12.67,14.95-18.46,22.62-4.19,5.55-1.69,11.86,4.58,12.4a8.86,8.86,0,0,0,5.06-1.66c5.12-3.32,8.71-.75,10.51,3.55,5.25,12.57,14.82,20.73,26.13,27.35.52.3,1.38,0,3.56,0A88.48,88.48,0,0,0-237.86,330l1.18-2.09h11.58c.7-2,1.39-3.91,1.54-4.36,12.7-3.34,18.52-13.26,27.48-20.25l-6-5.27c-6.27,6.37-7.95,6-14.06-1.9-.93-1.2-4-.93-6.08-1a45.79,45.79,0,0,0-6.23.77L-218,279.25l14.11,8.92,1.45-2.22c-6.69-6.62-13.12-13.53-20.14-19.77s-14.39-11.59-22.28-17.86l6.66-5.23,51.57,21.53.69-.73c.21.59.43,1.18.64,1.76h0c-.21-.58-.43-1.17-.64-1.76-11.45-15.28-29.25-18.34-47-23.73l6.16-5.66-1-1.1c-.78-.38-2.28-.93-2.23-1.14,4.06-18.85,2.34-37.59-.22-56.44-.84-6.2.45-12.68.45-19a160.91,160.91,0,0,0-5.7,66c.47,4,1.79,8.26.92,12-.72,3.08-4.08,5.54-7.23,9.47-2.14-11-3.1-20.25-5.85-28.92-3.9-12.3-14.83-25.44-27.75-22.53v0c12.66,5.38,18.89,15.3,21.62,28.51,1.65,8,5.21,15.56,8.15,24l-5.6,4L-279.39,210c-.7.41-1.4.81-2.11,1.2,4.53,7.92,8.06,16.68,13.84,23.55,7.61,9,5.82,17.33,1.46,26.37.34.47.67.94,1,1.42l9.07-6.25c2.49,7.29,4.95,14.51,7.47,21.87-9.29,10.16-4.87,10.14-18.47,3.85l8.94-19.7-1.48-.85c-4.72,4.94-9.32,10-14.23,14.72-1.12,1.08-3.66,1.86-4.89,1.32s-1.92-2.9-2.92-4.6l-6,2.48V245.6l-2.24-.57c-3.5,7.43-7,14.86-10.48,22.22-11.11-3.19-10.7-3.15-9.65-14,1.37-14.19,5-27.55,12.33-39.81l-1.31-1.33c-10.17,12.82-20.14,25.8-30.72,38.27-1.58,1.86-6,1.29-8.26,1.68,3.41-18.75,6.35-35.89,9.77-52.94.57-2.87,2.82-5.65,4.9-7.94,10.9-12,16.88-26.47,21.13-41.83.44-1.61,1.24-3.11,2.71-6.69,1.39,3.41,3,5.43,2.73,7-3.43,16.95-1,33.41,5.57,50,1.32-13.81,2.65-27.62,4-41.72l3.51,1.45.92-1-11.54-14.28c11.5-18.44,15.71-39,13.35-60.78-11,17.51-16,36.92-16.59,58.14-4.72-2.55-7-4.1-5.54-10.2,3.82-16.2,7.51-32.58,5.58-49.57-.33-2.92,1.92-6.14,2.59-8.06l40.87,12.93C-247.84,88.54-245.57,93.34-243.66,99.26ZM-61,428.44c-5.8,0-11.79,5.21-15.15-3.25-.66-1.65-.41-3.66-.5-5.51-.74-14.72-1-29.48-2.37-44.15-.71-7.87-.5-9.22,6.49-9.5C-69.09,386.67-71.57,408.27-61,428.44Zm-84.77-56.79-3.88-5c.14-.68.29-1.36.44-2l14.9,1.8c-.08.72-.15,1.43-.22,2.15Zm7.27,13.25-4,.55v-.85Zm-33.36-13.77,19.73-1C-158.64,378.09-163.08,378.13-171.87,371.13ZM-164.7,440c-.12.27-.73.33-1.12.48-.13-.37-.45-.9-.33-1a5.57,5.57,0,0,1,1.26-.74C-164.81,439.17-164.55,439.68-164.7,440ZM-174,362.55l-.57-2.93c6.81-.67,11.6-10.77,20.53-1.76Zm29.66,26.29c-7.2,6.49-15.76,4.39-19.63-4.9Zm-8-41.2,7.62-5.61,11.41,6.1C-141.12,349.91-146.72,355.69-152.39,347.64Zm10.42-8.05,9.45-8.87,12.25,13.87C-128.57,349.52-135,344.79-142,339.59ZM-231.36,497a15.4,15.4,0,0,1-2.42,1.92c-2,.83-4,1.53-6.32,2.38-.61-1.54-1.43-2.81-1.59-4.16-.37-3.2-.44-6.43-.63-9.66,2.73,1.92,5.53,3.74,8.15,5.8C-233.13,494-232.5,495.39-231.36,497Zm-70.42,90.23,7-14.44,23.22,2.81.48,2.74Zm24.06,7.23-.47.51-.9-.54c.15-.16.35-.46.46-.43A4.32,4.32,0,0,1-277.72,594.41Zm-11.86-35.75c.52-2.11,1.17-4.78,1.76-7.17,7.6,2.52,14.86,5,22.14,7.33,8.32,2.72,8.33,2.7,3.79,11Zm-16-33.85c17.16-5.18,29.34,8.19,43.28,15.92,2.36,1.31,2.21,7.14,3.42,11.64Zm46.1-64.46c5.3,4.91,3.34,8.86-2.1,13.37l-6-7.28Zm2.85-25.85,2.88.68c-.77,3.88-1.53,7.77-2.45,12.38C-265.8,441.5-257.11,438.49-256.65,434.5Zm-27.74,73.68c12.75-3,19.71.37,20,9.44C-273.32,519.41-277.75,512.31-284.39,508.18Zm36.62-4.76c-3.88,2.92-3.88,2.92-13-6.33C-252.25,492.15-252.3,501.69-247.77,503.42ZM-271.33,414q2.61-12.24,5.21-24.49l3.1,1.23q-3.11,11.88-6.22,23.75ZM-327.15,308.4c5.12-13.95,10.25-27.89,15.58-42.41l8.73,4.55C-316.5,301.49-317,302.25-327.15,308.4Zm37.29-26.46c3.2-4.17,6.84-3.93,10.26-1.13-7.36,11.63-14.19,23.55-22.35,34.47-1.85,2.48-8.33,1.5-12.68,2.12l-.63-2.27Q-302.57,298.52-289.86,281.94Zm-37.44-21.56c-2.53,15-5.43,30-7.38,45.08-.7,5.37-3.28,4.94-6.86,4.66-4.37-.34-4-2.79-3.35-6.12,1.6-8.25,2.6-16.62,4.18-24.88,1.43-7.49,3.3-14.89,5.17-23.18l10.55,4.39Zm89.74,29.74c-4.89-5.89-5.51-12.12-2.32-19.29l-4.93,3c-2.38-5.14-5.07-10.32-7.11-15.75-.62-1.62.59-3.93,1-5.93,2,.53,4.7.41,5.82,1.69,7.41,8.44,14.47,17.19,21.76,26C-226.33,282-231.77,285.93-237.56,290.12Zm3.08,14.37-2.3,3.45c-2.48,3.27-5.59,6.24-7.33,9.87-3.15,6.59-8.09,8.14-16.17,6.45l22.07-17.46,2.63-3ZM-291.81,49.14l20.42,17.24-.78,1.06-30.68-9.5ZM-450.65,215.76c8-.87,15.86-2.63,23.29-3.91-3.26-5.48-7-11.54-10.37-17.81-.32-.6,1.83-2.51,3.23-4.33l16.6,24.57-57.63,19C-469.41,221.76-461.76,217-450.65,215.76Zm-27.44,24.78c14.67-3.62,28.72-9.74,43-14.74,7.64-2.66,15.32-5.21,24.65-8.38l-15.82-35.28,8.85-7.78c5.24,15.33,10.73,31.36,16.22,47.4l-3.65-.73a9.34,9.34,0,0,1-.81,1c-3.26,1.34-6.47,2.76-9.76,4q-40.36,15.1-80.75,30.14c-1.3.48-2.65.83-5.57,1.73C-494.39,249.39-488.4,243.08-478.09,240.54ZM-567,327.16c17.09-6.68,32.82-15.77,46.54-28.14,1.49-1.34,3.46-2.16,6-3.71-12.91-2.8-22.11,7-34,7.68,5.49-4.23,11.17-8.23,16.38-12.79,3.38-3,6-6.79,9.06-10.13,8.29-9,13.75-21.12,29-21.9,7.64-.38,15.08-4.6,22.65-7,6.56-2.06,13.27-3.65,19.73-6,15.2-5.5,30.2-11.56,45.49-16.83,3.77-1.29,8.29-.39,12.47-.49l-.12-.17.1,0c-2.46-18.77-4.2-37.71-15.07-54.21-2.23-3.38-2.59-7.06,1.18-10.7,12.86-12.4,24.89-25.7,38.2-37.59,6.8-6.08,15.62-9.89,23.17-14.51C-350.84,97.1-334.8,96-331.09,87.1c3,12.19,6.09,24.37,9.09,36.39-11.85-3.27-46.73,32.15-47.89,49.75l3.47-4.18.64,1.74c2.71-2.91,5.78-6.46,9.12-9.74,9-8.79,18.55-17,26.81-26.37,4.23-4.81,7.66-7.94,14-5.38l0-.1h0l.19.09c-.56-4.18-1.28-8.35-1.63-12.55-1-12.54-2.06-25.08-2.81-37.63A8.85,8.85,0,0,1-318,73.54c3-3.55,6.37-6.73,9.76-10.23l10.47,6c-6.65,20.57-19.32,40-9.44,64.14l-8.42-4.14v.1l-.25-.09a36.32,36.32,0,0,1-3.16,5.33c-10.8,13-21.92,25.71-32.41,39-2.79,3.52-3.76,8.5-5.54,12.83l.05,0-.1.11.1-.11a.43.43,0,0,1,0,.11c1.29-.15,2.85.1,3.78-.55,17.45-12.33,31.28-27.64,39-47.91a19.08,19.08,0,0,1,2.36-3.4l6.06,3.69-21.52,42.09s-.45-1.2-.42-1.12c-3.29,6.59-7.5,13.62-10.32,21.16-1.6,4.29-.35,9.56-1.4,14.16-2.39,10.45-5.4,20.75-8.11,30.94-9.26-1-9.61-6.37-9.45-13.36.28-12.35-.78-24.72-1.07-37.09-.07-2.86.7-5.74,1.09-8.61h-.08s0-.09.05-.13c-7.91-3.73-3.16-10-3.26-15.49a48.11,48.11,0,0,0-6,33.17c1.92,11.62,3.52,23.3,5.35,35.58l-13.6-3.11v.05l-.11-.05c1.74,1.39,3.49,2.78,6.55,5.24-6.28,1.69-11.62,2.92-16.78,4.65-1.77.6-3,2.67-4.67,3.72-13.76,8.65-27.43,17.48-41.46,25.69-5.4,3.16-11.91,4.4-17.41,7.43-2.24,1.23-4.11,4.74-4.49,7.45-2.53,18-4.6,36.1-6.88,54.15a14.91,14.91,0,0,1-2.77,7.55q-2-21.68-4-43.34l-2.36.21c-.08,15.77.54,31.49,4.28,47l1,3-1,.43-1.23-2.49-4.82.32c0-3,1.07-6.43-.16-8.39C-483.42,329.32-493,307.44-510.49,291l-2.07.53c1.44,5.08,1.86,10.79,4.52,15.13,9.19,15,19.19,29.44,28.83,44.14,4.66,7.11,9.15,14.33,13.89,21.4a44.8,44.8,0,0,0,4.81,5.25c-.17.76-.34,1.51-.52,2.26-2.44-.22-5.67.48-7.21-.82-12.6-10.62-24.88-21.61-38.39-33.49h10.84c-12.68-4.33-24.87-9.14-34.35-19.69l11.87-7.92-1.05-1.37c-8.78,2.34-17.7,4.28-26.28,7.21-3.53,1.2-6.41,6.57-9.45,6.46-8.42-.29-11.65,6.91-17.56,10a16.48,16.48,0,0,0-2.33,1.81C-577.36,330.8-577.17,331.13-567,327.16Zm193.5-62.39-5.66-8.52c4.42-3.82,8.28-8.93,13.36-10.94,3.7-1.46,9,1.18,13.62,2l.33,2.34C-358.95,254.59-366,259.55-373.5,264.77Zm21.56-6.42c-1.85,13.35-3.57,25.69-5.29,38l-2.17-.19c-.68-2-.92-4.32-2.1-6C-371.31,276.47-363.48,267.53-351.94,258.35Zm-25.15,25,5.76,12.56-1.3,1.56-12.22-6.89Zm-10.76,5.24-20.35-16,23.6-13.21C-379.68,269.8-380.66,279.16-387.85,288.61Zm-16.72,66.24c-.73.78-1.47,1.56-2.21,2.33-12.16,13.3-21.67,29.42-38.19,38.08l-2.09-1.87c3.22-4.27,5.88-9.15,9.77-12.67,9.54-8.61,19.64-16.6,29.52-24.83l2.18-1.91,1.26-1.27-.24,2.14Zm-4.67,114.51c1.29,1.73,2.74,3.7,4.85,6.55.51-5.54.08-11.87,6.24-12.55,5.22-.56,10.7,1.17,16.06,1.89.07,1,.13,1.94.19,2.91L-394.64,471c-1,6.36-2.08,12.89-3.28,20.3-5.26-1.17-9.45-2.18-13.68-3s-8.65-1.51-12.81-3.15C-416.76,481.42-421.48,466.66-409.24,469.36Zm-7.6-23.06c10.63-.82,21,6.6,30.11,2,.13.66.42,2.07.72,3.54l-29.69,8.37C-416.11,455.09-416.48,450.66-416.84,446.3Zm36.39,45.15L-391,493.16V476.65l1.35-.43Zm-39.73-41.89a34.26,34.26,0,0,1-3.77,7.41c-.32.49-1.85.22-3.21.33.82,7.25-2.51,11.33-10.42,12.44.67-4.14,1.27-7.82,1.86-11.5-7-.86-4.6,5.06-5.8,8.26-.58,1.55-.27,3.43-.37,5.16l-2.69-.09v-14l8.73.57.13.09-.12-.09c2.82-3.35,5.44-6.91,8.55-10,1.34-1.31,3.69-1.72,5.66-2.12C-421.35,446-419.86,448.61-420.18,449.56Zm-7.51,32.92-1,2.36-13.43,2.09c.43-9.3,1-9.91,10.1-11.72C-429.8,477.29-438.88,484-427.69,482.48Zm-18.51-28c-1.19-11.06,1.53-19,12.51-24.1C-437.66,438.82-436.43,448.43-446.2,454.44Zm-37.29,21.91c4.41-12.13,4.4-12.13,17.1-7.57-.27,2.07-.46,4.15-.84,6.19s-.95,4.2-1.54,6.74l-17.63,2.21C-485.2,480.81-484.31,478.59-483.49,476.35Zm-11.15,6.22c-1.89,2.31-6.14,3.1-9.48,3.68-3.54.61-7.26.13-10.9.13.58-24.64,8.94-30.1,30.94-20.65C-487.51,471.39-490.46,477.49-494.64,482.57Zm8.05-28.2,12.44-8.64-1.72-2.12,13.19,6c-.8,3.52-1.52,6.69-2.25,9.93Zm-37.83-75.55c11.49-9.48,26.33-.52,44.54,15.21l-7,8.5-8.65-5,6.24-3.11C-504.07,395.58-513.92,386.69-524.42,378.82Zm53,8.5c-3.07-.77-6.82-.68-9.12-2.46-15.81-12.2-31.33-24.79-47.32-37.56l7.8-4.53,49.18,42.7Zm1.62,14.82,4.1,3.71-5.24,7.2-5.18-3.44Zm-44.21-36c-10.29.35-22-.58-33,1.51s-21.83,7.23-32.67,11c-2-13.43.75-12.39,9.4-14.72,13.19-3.55,26-8.65,39.78-13.38Zm31.2,51.62,6,3.77c-1,2-2,4.12-3.38,6.91l-9.5-5.24Zm14.38,18.13,5.5-6.81,7.15,4.4-3.58,8.17Zm8.57-13.24c1.78-3.43,3.33-6.41,4.87-9.4l1.63-.16,1.81,14.12-2.06.79Zm11.84,48c.62,3.37,1.25,6.86,1.93,10.59l-15.75-1.08C-456.47,477.15-457.35,467.76-448.06,470.64Zm-2.26-59.46-2-.24c.61-5,1.22-10,1.95-15.86C-442.43,401.88-446.93,406.47-450.32,411.18ZM-585,340.3l6.74,11.28c1.9-1.44,4.53-4.18,7.74-5.72,12.27-5.9,24.72-11.41,38.06-17.49l9.08,10.14c-20.83,2.46-39.16,8.76-55.25,23.56v-6.15l-.94-.21c-.5,2.92-1,5.83-1.53,8.89l-10.65-17.19Zm-14.11,14.31c5,4.73,10.91,8.72,14.36,14.27,2.48,4,1.63,10.05.69,15.66l-19.45-25.49ZM-613,369.9c8,5.64,17.19,11.16,25,18.21,3.07,2.76,3.1,8.93,4.51,13.55l-2.49.83c-10.17-10.46-19.86-21.6-36.67-25.23C-618.68,374.25-615.81,372.05-613,369.9Zm28.48,50c-9.65-10.67-26.74-10.63-33.67-24.59,10.25,3.92,21,7.42,31.12,12.34,2.7,1.33,3.28,7,4.83,10.69Zm11.46-35.39c13.4-1.47,26.76-3.35,40.18-4.67,2.32-.23,5.13,1,7.18,2.37a79.75,79.75,0,0,1,8,6.57L-581.24,394C-582.78,386.11-582.18,385.5-573.08,384.5Zm-.13,17.92c12,1.12,24,.91,36,1.75,3.84.27,7.57,2.05,11.35,3.14l-.09-.15h.15c.66-1.54,1.19-4.12,2-4.23,9.88-1.28,20.76-7.52,28.33,4.86a14.51,14.51,0,0,0,2.51,2.3l-5.06,9.54c-8-4.06-15.68-8-23.45-11.82-1.26-.62-2.89-.48-4.36-.65l0,.09L-504,425.69c-.14.62-.28,1.24-.43,1.86-25.25-6.77-49.55-18.48-76.33-15.94C-582.65,400.92-582.71,401.52-573.21,402.42Zm52,88.72c-7.15-4.19-7.15-4.19-6.77-21.34-1.41,3.87-2.81,7.75-3.85,10.6l-27.23-27,24.62,13.44c.68-.95,1.36-1.89,2-2.84-9.37-9-18.48-18.31-28.22-26.91a73.76,73.76,0,0,0-15.92-10.16c-4.1-2-4.73-4.18-2.75-8.21,24,9.43,47.9,17.93,75,10l-2.76,7.49.69.66,8.45-6.51,12.8,7.71c-3.17,10.73-8.45,17.87-20.55,19.56-5.47.77-10.31,6-14.69,8.79C-515.55,475.57-524,482.51-521.18,491.14Zm6.18-3.32,15.26,1.66-7.79,15.72C-518.19,499.32-519.08,497.27-515,487.82Zm51.15,63.24,22.43-3.6c0-.31,0-.62,0-.92-6.53-.46-13.19-1.94-19.56-1.11-8.69,1.14-12.64-3.94-17.25-9.68l33.71-11.39c-.1-.52-.2-1-.29-1.56l-42.57,5.81c-.11-.81-.23-1.62-.34-2.43,9.89-4.29,19.87-8.38,29.59-13,2.39-1.14,3.9-4.08,5.82-6.2-.47-.51-1-1-1.42-1.54-10.6,3.92-21.14,8-31.81,11.71-9.14,3.17-9.2,3-16.56-4.9,2.62-4.5,5.89-8.81,7.75-13.66,2.85-7.4,8.1-12.47,15.1-8.74,8,4.24,12.83-3.46,19.62-2.34,3.6.6,7.53-.83,11.31-1.34l.84-.84c-.05.52-.1,1.05-.14,1.57h0c-.19,1.45.16,3.72-.64,4.23-6.17,4-5.09,8.67-1.55,13.68l5.46-1.08c4.11,24.91,8.15,49.46,12.27,74.45Zm68,67.53c4.44-4.56,3.51-9,.21-13.49-9.05-12.27-18-24.6-27.14-36.83-.55-.73-2-.77-3.1-1.1a.22.22,0,0,0,0,.08l-.11-.1.11.1-.09,0c3.15,8.75,3.49,18.42,11.84,25.26,5.82,4.76,9.73,11.86,14.33,17.7-11.28,2.33-31.79-27.76-30.3-45.11l4.13,2.15a.14.14,0,0,0,0-.06l.1,0c-.28-1.39-.14-3.16-1-4-9.26-10.17-8.38-23.5-10.76-35.61-2.42-12.27-2.94-24.91-4.49-39.24l10.29,5.3h14.95c.81,10.13,1.58,19.83,2.36,29.53l2.51.2c1.36-4.67,2.71-9.34,4.3-14.82l-6.78,2.59,7.18-16.75h6c1.37,10.1,2.7,19.88,4,29.65l2.52,0c1.59-9.4,3.17-18.81,4.82-28.55H-381c-4.1,7.23,2.06,10.52,5,15,2.23,3.33,4.85,6.4,8.61,11.3-2.29-11.78-6.08-21.68-11.56-33.2,13.77,3.44,25.91,7.67,38.77,3l-24.11-10.07,25.6-3.16a87.54,87.54,0,0,0-40.62-10.45c14.24-4.12,30.16,3.08,43-8.11-13.56-3.11-27.64-1.87-40.05-8-.08-.81-.17-1.63-.26-2.44l19.93-7.59c-.06-.52-.12-1-.19-1.56h-56.76c5.3-6.85,6.85-7.31,16.41-6.69a28.15,28.15,0,0,0,10-1.49c11-3.41,21.91-7.12,32.72-11.42-24.54-3.68-48.57-1.42-74.06,6.3,7-7.43,11.53-13.88,21-15,15-1.76,28.47-7.49,39.1-18.79.93-1,2.84-1.14,3.58-2.18,1-1.44,1.32-3.35,1.93-5.07-1.37-.38-2.77-1.18-4.11-1.08-5.44.4-11,.62-16.27,1.79a65.41,65.41,0,0,0-14.11,5.1c-12.22,5.9-24.26,12.17-36.41,18.22-.77.38-1.89.05-3.95.05,6.37-6.93,11.91-12.59,20.37-16.4,15.2-6.84,29.37-16,43.91-24.23a64.5,64.5,0,0,0,14.15-10.43l-50.79,13.88c12.59-10.81,15.92-26.5,27-36.55-13.39-2.57-24.13,7.6-36.74,12.75C-413.61,334-407.17,319-400.73,304l-2-.8c-17.67,24.53-29.54,52.86-49.55,76.08,13.3-29.35,22-59.68,24.11-91.85l-22.22,54.9-1.95-.56c1-7.89,2.17-15.76,3-23.66,1-9,1.93-17.93,2.37-26.92.18-3.8,1.16-5.25,5-6.44,8.27-2.54,16.22-6.11,24.26-9.37,3.69-1.49,7-1.82,9.59,1.88.14.19.39.29.56.46,6.08,5.59,14.34,10.15,17.61,17.07s1.59,16.24,2.07,24.5a4.32,4.32,0,0,0,1,2.91c.87-8.66,1.73-17.32,2.7-27,6.61,3.49,12.72,6.62,18.7,10,.66.37.58,2.06.84,3.14l1.11,1,4.05-3.35c-1.07,12.3-2,23.58-3,34.86l-1.75-.17c0,.22,0,.45.07.67l2.79-.37,13.25,45.8,2-.17-2.31-58.6h-.19l.06,0-.05,0,.17-.14-6.39-21c4.85,3.13,9.56,4.49,10.73,7.31,2,4.91.44,10.17-4.34,13.69h0V328c3.94-.4,5.12,1.72,6.16,5.42,3.52,12.43,7.9,24.62,11.44,37.05,2,6.9,2.93,14.09,4.35,21.15l-2.36.88-4-2.27-1.65,1.32c16.7,20.63,37.5,36.66,58.64,52.33,3.94,2.92,7.43,6.23,5.13,11.7l-56-45c-.24,2.34-.94,4-.41,5a14.61,14.61,0,0,0,3.88,4.32q23.64,19.41,47.34,38.68l-2.13,6.9L-323.2,437c.35,2.33.05,4.32.83,4.93,12.6,9.84,25.27,19.6,38.08,29.16a37.71,37.71,0,0,0,9.92,5.37c6.78,2.35,8,7.06,6.92,12.23L-328.56,455l-1.08,1.41c1.1,1.35,2,3,3.35,4,13.14,9.71,25.41,20.58,40.44,27.71,4.6,2.19,7.63,7.7,11.1,12.68-19.5-7.65-37.28-7.63-51.81,10.05,3.85-1.24,7.62-2.95,11.57-3.57,3.05-.48,7-.62,9.35.89,4.22,2.66,7.58,6.69,12.22,11-14.1,3-26.36,4.88-37.85-3l-1,1.29c11,9.06,21.92,18.21,33,27.13,2.79,2.24,6.14,3.76,9,5.49-5.18,13.35-15,4.26-22.6,5.09-13.14,1.44-8.83-12.23-15.21-18.82-10.44,22.74-7.57,45.5-5.34,68.68a17.88,17.88,0,0,0-4.18.49c-4.8,1.79-5.29.38-5-4.52,1.28-25-6.35-56.11-21.89-79.64,1.6,15.69,2.25,30.36,4.78,44.7,2.48,14.12,6.88,27.9,10.46,41.92-6.26,2.18-9.79-.11-11.3-7.63-3.64-18.15-7.17-36.39-17.28-52.5-.92-1.45.51-4.37.84-6.63l-5.66-2.63c-3.9,19.06-4.62,34.74,19.21,70.28-11.49,2.1-10.74,1.67-16.13-8-7.88-14.17-17-27.68-25.58-41.44-2.43-3.88-6.89-6.51-2.36-12.7,2.33-3.18.41-9.46.41-14.34l-1.78-.3c-1.27,7.23-5,15.12-3.29,21.55,3.74,14,7.27,28.66,17.12,40.25,4.33,5.09,9.06,9.85,14.26,15.47l-6.43.82.07.91H-377c-4.89,4.56-9,8.42-13.53,12.6Zm90.69-48.18c-7.52,7-6.9,20.31-18.93,24.76,1.08-10.51,2.11-20.51,3.17-30.77Zm-78.69,60c3.91-5.53,7.06-11.81,11.91-16.22,3.07-2.78,8.67-2.78,13.13-4l1.26,2.42-23.51,20.16,1.19,2.1Zm14.6,14.21c4.41-8.61,9.54-16.9,13-25.84,2.93-7.69,7.58-10,16.06-8.62-10.38,12.81-19.1,26.1-19.28,44.72Zm16.7,15.93c8-15,14.62-30.94,16.63-48.64.24-2.11,6.25-3.56,9.59-5.32l.95-.83c.11.6.21,1.2.31,1.8h0C-337.53,628-337.2,651.25-338.7,675Zm109.47,16.28c-5.53-8-9.91-14.54-14.45-20.93-1.26-1.76-3-4.55-4.51-4.55-10.36,0-10.64-9.14-14.84-15-3.42-4.77-8.47-8.36-13.51-11.88,1.22,6.88,3.23,13.07,10,16.45,1.17.58,2.94,1.67,2.95,2.56.29,14.08,11.88,20.57,19.91,29.25,2.16,2.34,6.75,2.42,11.56,4-7.45,7.5-13.52,13.59-20,20.07-11.26-10.74-21.29-23.56-37.85-27l-1.35,1.2,28.07,37.47c-3.89,10.14-12,3.32-19,2.15-7.91-1.32-14-5.48-19.41-11.44-7.06-7.78-14.87-14.87-22.31-22.21,12.37-22.49,19.43-45.84,17.24-72.89L-280.25,594l1.23,2c-9.43,12.87-22.52,22.34-33.45,33.85,19.71-11.36,33.92-28.34,47.52-45.7l10,1.6,5.64,25-1.58,1.12-5.28-7.94-2.2,1.42c.86,8.62,3.9,16.58,8.2,24.22,2.15,3.83,5.2,7.62,5.83,11.74,1.28,8.4-.69,17.18,4.54,25.17C-238.72,668.17-241.66,672.55-243.11,676.84Zm33.19-36.09c-9.13,6.71-17.68,14.37-29,20.79-1-9-1.76-15.18-2.47-21.37l1.75-.66c1.81,3.52,3.61,7,5.35,10.44l23.54-10.24,1.8-.22ZM20.38,394l9.44,7.67-14.18,14c1.42-8.9-6.18-14.81-1.24-22.59l-1.26-.9c-2.77,8.46-6.15,16.78-8.08,25.43-1.2,5.4-2.25,9.91-7,13.59-3.21,2.5-5.06,6.78-8.85,10,2.84-16.05-2.9-29.79-8.73-43.52q-2.79-6.4-5.57-12.8l-1.74.51c.35,5.07.71,10.13,1.08,15.39l5.25-2.48c.68,6-1.73,12.1-1.1,17.65,1.09,9.59,4.7,18.89,7.5,29.24-17.8,5.46-34.25,15.74-48.81,29.42l31.28-13.16-41.07,40.82-16.68-30.67-1.21.83c2.4,8.61,4.19,17.45,7.38,25.77,3.44,9,3.94,16.45-6.68,22-4.83-8.73-8.72-18.83-15.23-26.8-8.94-11-11.06-24-15.21-36.57-.56-1.69-3.16-2.71-4.81-4.05-.26,2.27-.86,4.57-.67,6.8.12,1.46,1.4,2.81,3.22,6.17l-6.59-4c.19,1.44,0,2.66.52,3.58,9.81,19.16,19.55,38.36,29.66,57.37,2.07,3.9,2.77,6.62-1.89,9.09-15.95-19.53-31.64-39.66-52.72-54.47l-1.56,1.31,44,54.53-.49.59-51-41.3-3,5.13,3.7,8.58c2.67,1.36,6.85,2.85,10.29,5.36,13.73,10,27.23,20.3,40.82,30.49l-8.23,6,.15.13-.1,0s.1,0,.1.05-.09.13-.14.2l.15.74-.67.06.52-.8-.06-.31.05,0c-1.12-1.06-2.23-2.8-3.38-2.83-12.62-.33-25.27-.75-37.89-.37a242.37,242.37,0,0,0-37.22,4c24.26,7.89,48.91,8,75.14,3.26-14.28,22.89-38.76,24.56-58.65,35.3l29.57-5.18c-17.44,19.42-34.92,38.35-60.77,46.43l-2,.54-2.85,1-.23.27-.19-.11.19.11-.17.18.06.73-.66,0,.6-.69,0-.29.42-.16c.65-.71,1.29-1.43,1.93-2.14l1.84-.93,17.3-18.37-1.38-1.65c-9.9,1.28-17,7.61-24,14.24-2,1.88-2.43,7.21-7.07,3.18-1.15,1.89-3.16,3.73-3.28,5.68-.2,3.47.74,7,.28,10.78-11.42-15.24-18.11-32.23-19.22-52.19,20,4.17,40.26,3.21,60.37-.9.11-.86.23-1.71.35-2.57-13.67-2.11-27.31-4.42-41-6.25-6.52-.87-13.21-.52-19.72-1.43-1.6-.22-2.81-3.21-3.62-5.86,26.32,4.87,50.88-6.26,76.32-5.53-25.54-8-51.07-14.43-77,.46.82-11.39,3.89-13.4,13.42-14.41,18.87-2,37.36-5.57,54.11-15.59,5.93-3.56,11.69-9.34,19.42-7.76-29.64-8.58-53.88,8-79.84,18.45.46-2.09,1-4.47,1.51-6.85l-.15.12v0c-.85.45-1.84,1.31-2.47,1.09-3.24-1.12-10.6-13.22-10.4-17.19,3.32.64,6.71.92,9.83,2,4.09,1.36,5.56,4.33,4,8.66a28.17,28.17,0,0,0-.93,5.47h0c5.75-10.39,16.71-9.47,26.1-11.75,3.14-.76,6.63-.12,10-.81l-14-2.37c-.16-1.71-.32-3.33-.45-4.7-5.24-.15-9.15,6.65-15.7.19-3.53-3.49-5.61-1.38-8.82-9,4.86-1.88,9.77-3.91,12.1,4.65,3.13-2.43,5.44-4.76,8.21-6.22,2.31-1.22,5.59-2.62,7.7-1.87,8.94,3.16,15.61-3,23.24-5,.71-.18.7-3.17,1.18-5.68l6.9,3c.9-3.23,1.76-6.3,3.2-11.48l-14.29,6.17c-9.83-9.22-19.23,3.08-29.6.58l11.9-7.53-1.58-2.86-10.12,3.49c2.31-13.15,14.63-19.74,33.57-19.11l-4.69-3.23c18.18-11.79,29-28.44,34.38-48.59l-1.93-1.3c-1.23,2.06-3.44,4.07-3.53,6.17-.36,8.73-6.94,14.58-9.8,22.13-1,2.56-5.12,4-8,5.74q-10.66,6.28-21.51,12.28c-3.23,1.8-6.61,3.31-10.6,5.29,1.33-5.69,2.31-9.86,3.48-14.88l-3.46,2c-4.7-4.53-4.7-4.53,4.39-11.44.36,2.73.68,5.12,1,7.85h7.35c.39-2.32.13-5.45,1.51-7.47,1.2-1.79,4.23-2.33,5.8-3.1l-5.12-7.33-19.1,11c-1-2.13-1.9-4.2-2.94-6.2-5.62-10.75-1.7-18.94,10.46-22.11a14.91,14.91,0,0,0,5.78-2.88c13.33-11.55,28.87-21.15,34.73-39l5.11,4.3c-4.91,9.13-10.45,17.93-14.49,27.37s-6.56,19.51-9.91,29.8c8-.71,12.73-4.8,15.59-12.53,2.74-7.43,5.16-15,8.22-22.3.82-1.92,3.49-3.07,5.31-4.58l1.63,1.42-2.14,8.13c1.69,2.14,4.47,4,4.46,5.94A140.47,140.47,0,0,1-166.59,434c-1.8,11.34-4.2,22.59-6.35,33.87l2.71.83c1.92-4.41,5.84-9,5.36-13.17-1.16-10,4.78-16.18,9.61-23.17,3-4.3,6.18-8.44,9.26-12.63.75,4.71,1.56,9.87,2.38,15l2.11-.15,5.35-8.82c8.47,1.44,16.74,3.63,25.1,4,7.74.37,15.56-1.18,23.94-1.94-5.71-3.33-10.46-5.3-13.79-8.67-.76-.77-.3-9.55,8.74-7.45-8.78-4.17-6.66-17.57,3.36-30.2l-5.94,1.77c-2-6.69-.72-11.79,6.44-14.23L-107,360c-2.81,2-6.44,6.64-9.9,6.52-4.14-.14-8.14-4.36-12.06-8.63l10.87-.65c-.06-.62-.22-2.46-.31-3.49,4.93-6.29,9.41-3.66,14.2-.47a91.38,91.38,0,0,0,11.27,5.91c3.92,1.87,7.93,3.53,12.15,5.39l-7.64,4.66v0l4.61-.54c-6.74,22.46-7.38,43.8,6.12,63.65L-84,438l.27,1.61,20-2.7h0l3.12-.64.34.93-2.43,1-19.31,11.25.63,1.85,27.34-4.83L-75.3,460.85l1.21,2.06c18.65-3.17,35.21-11.44,50.19-21.36q-2.76-8-5.52-16l-3,1.08c.68,2.57,1.79,5.13,1.9,7.74.09,2.06-.54,5.63-1.7,6-7.21,2.47-14.66,4.24-22,6.24L-38.08,435c-2.47-8.94-4.31-18.45-7.84-27.27-1.75-4.36-6.65-7.45-10.08-11.16a6,6,0,0,1-1.19-2.12c-2.5-7.78-4.54-15.73-7.55-23.29-2.38-6-1.67-8.89,6-8.43,3.16,22.81,17.13,41.05,28.11,61.1.82-23-9.13-42-21.34-60.18l1.11-2.07c1.89.9,4.4,1.32,5.59,2.79,10.18,12.67,23.8,20.63,37.74,28.2-.26,7.95.07,15.78,4.06,22.86a8.09,8.09,0,0,0,.27-4.08c-1-6.64-2-13.27-3.05-19.91l-28.39-31.27L7,365.64c-17.84-7.85-36.62-7.77-55.27-6.93L-58,336.26l26.63-28.6c6.33,3.93,9.75,9.27,7.29,18.61-2.19,8.32-1.87,17.27,2.47,24.8,1.4-8.94,2.87-18.26,4-25.24L25,368.42l4.05-.19-1.94,2.29L25,368.42l-14,.63c0,.58-.07,1.16-.1,1.74,6.13,1.23,12.71,1.47,18.26,4s10.08,7.35,14.94,11.07C39,397.68,30,396,20.38,394ZM-18,417.93A15.3,15.3,0,0,1-19.86,421c-.58-2.1-1.21-3.11-1-3.81.34-1,1.35-1.71,2.84-3.42A21.69,21.69,0,0,1-18,417.93ZM-256.61,557.67v-13.8C-249.85,547.18-249.82,548-256.61,557.67Zm145.39-184.41c.09-.68,0-1.25.2-1.46,5.06-4.51,5.06-4.5,13.57-1-5.57,2.43-.39,16.17-13.38,12.22,1.48-3.12,2.61-5.52,3.74-7.91Zm1.11,21.5,2.12.65v11.36l-7.61.86Zm2.6,17c.18,2.56.36,5.15.64,9.15l-11.73-1.32C-118.07,412.43-117.47,412-107.51,411.73Zm51.84-7.12c4.15,8.44,8.14,16.15,11.63,24.08.59,1.33-1,3.6-1.22,4.45-3.38-2.62-6.16-4.46-8.54-6.74A6.92,6.92,0,0,1-55.58,422C-55.79,416.27-55.67,410.52-55.67,404.61Z"/>
  <path class="cls-1" d="M30.89,26.3l.62-4.84H26.72V18.37c0-1.4.39-2.36,2.4-2.36h2.56V11.68A33.89,33.89,0,0,0,28,11.49c-3.7,0-6.23,2.25-6.23,6.4v3.57H17.53V26.3h4.19V38.73h5V26.3Z"/>
</svg>
